<mxfile host="app.diagrams.net" modified="2022-04-07T14:18:52.415Z" agent="5.0 (Windows NT 10.0; Win64; x64) AppleWebKit/537.36 (KHTML, like Gecko) Chrome/100.0.4896.60 Safari/537.36 Edg/100.0.1185.29" etag="uvRqVt7i3GfA2yrEhHWY" version="17.4.1" type="github">
  <diagram id="C5RBs43oDa-KdzZeNtuy" name="Page-1">
    <mxGraphModel dx="1618" dy="1011" grid="1" gridSize="10" guides="1" tooltips="1" connect="1" arrows="1" fold="1" page="1" pageScale="1" pageWidth="827" pageHeight="1169" math="0" shadow="0">
      <root>
        <mxCell id="WIyWlLk6GJQsqaUBKTNV-0" />
        <mxCell id="WIyWlLk6GJQsqaUBKTNV-1" parent="WIyWlLk6GJQsqaUBKTNV-0" />
        <mxCell id="MseVB1M6DWcvVMKwtqfp-2" value="" style="edgeStyle=orthogonalEdgeStyle;rounded=0;orthogonalLoop=1;jettySize=auto;html=1;" edge="1" parent="WIyWlLk6GJQsqaUBKTNV-1" source="MseVB1M6DWcvVMKwtqfp-0" target="MseVB1M6DWcvVMKwtqfp-1">
          <mxGeometry relative="1" as="geometry" />
        </mxCell>
        <mxCell id="MseVB1M6DWcvVMKwtqfp-0" value="while(true)" style="shape=hexagon;perimeter=hexagonPerimeter2;whiteSpace=wrap;html=1;fixedSize=1;" vertex="1" parent="WIyWlLk6GJQsqaUBKTNV-1">
          <mxGeometry x="340" y="90" width="120" height="80" as="geometry" />
        </mxCell>
        <mxCell id="MseVB1M6DWcvVMKwtqfp-4" value="" style="edgeStyle=orthogonalEdgeStyle;rounded=0;orthogonalLoop=1;jettySize=auto;html=1;" edge="1" parent="WIyWlLk6GJQsqaUBKTNV-1" source="MseVB1M6DWcvVMKwtqfp-1" target="MseVB1M6DWcvVMKwtqfp-3">
          <mxGeometry relative="1" as="geometry" />
        </mxCell>
        <mxCell id="MseVB1M6DWcvVMKwtqfp-6" value="" style="edgeStyle=orthogonalEdgeStyle;rounded=0;orthogonalLoop=1;jettySize=auto;html=1;" edge="1" parent="WIyWlLk6GJQsqaUBKTNV-1" source="MseVB1M6DWcvVMKwtqfp-1" target="MseVB1M6DWcvVMKwtqfp-5">
          <mxGeometry relative="1" as="geometry" />
        </mxCell>
        <mxCell id="MseVB1M6DWcvVMKwtqfp-1" value="左黑" style="rhombus;whiteSpace=wrap;html=1;" vertex="1" parent="WIyWlLk6GJQsqaUBKTNV-1">
          <mxGeometry x="360" y="250" width="80" height="80" as="geometry" />
        </mxCell>
        <mxCell id="MseVB1M6DWcvVMKwtqfp-8" value="" style="edgeStyle=orthogonalEdgeStyle;rounded=0;orthogonalLoop=1;jettySize=auto;html=1;" edge="1" parent="WIyWlLk6GJQsqaUBKTNV-1" source="MseVB1M6DWcvVMKwtqfp-3" target="MseVB1M6DWcvVMKwtqfp-7">
          <mxGeometry relative="1" as="geometry" />
        </mxCell>
        <mxCell id="MseVB1M6DWcvVMKwtqfp-10" value="" style="edgeStyle=orthogonalEdgeStyle;rounded=0;orthogonalLoop=1;jettySize=auto;html=1;" edge="1" parent="WIyWlLk6GJQsqaUBKTNV-1" source="MseVB1M6DWcvVMKwtqfp-3" target="MseVB1M6DWcvVMKwtqfp-9">
          <mxGeometry relative="1" as="geometry" />
        </mxCell>
        <mxCell id="MseVB1M6DWcvVMKwtqfp-3" value="右黑" style="rhombus;whiteSpace=wrap;html=1;" vertex="1" parent="WIyWlLk6GJQsqaUBKTNV-1">
          <mxGeometry x="360" y="585" width="80" height="80" as="geometry" />
        </mxCell>
        <mxCell id="MseVB1M6DWcvVMKwtqfp-14" value="" style="edgeStyle=orthogonalEdgeStyle;rounded=0;orthogonalLoop=1;jettySize=auto;html=1;" edge="1" parent="WIyWlLk6GJQsqaUBKTNV-1" source="MseVB1M6DWcvVMKwtqfp-5" target="MseVB1M6DWcvVMKwtqfp-13">
          <mxGeometry relative="1" as="geometry" />
        </mxCell>
        <mxCell id="MseVB1M6DWcvVMKwtqfp-16" value="" style="edgeStyle=orthogonalEdgeStyle;rounded=0;orthogonalLoop=1;jettySize=auto;html=1;" edge="1" parent="WIyWlLk6GJQsqaUBKTNV-1" source="MseVB1M6DWcvVMKwtqfp-5" target="MseVB1M6DWcvVMKwtqfp-15">
          <mxGeometry relative="1" as="geometry" />
        </mxCell>
        <mxCell id="MseVB1M6DWcvVMKwtqfp-5" value="右黑" style="rhombus;whiteSpace=wrap;html=1;" vertex="1" parent="WIyWlLk6GJQsqaUBKTNV-1">
          <mxGeometry x="520" y="250" width="80" height="80" as="geometry" />
        </mxCell>
        <mxCell id="MseVB1M6DWcvVMKwtqfp-7" value="停止" style="whiteSpace=wrap;html=1;" vertex="1" parent="WIyWlLk6GJQsqaUBKTNV-1">
          <mxGeometry x="340" y="755" width="120" height="60" as="geometry" />
        </mxCell>
        <mxCell id="MseVB1M6DWcvVMKwtqfp-9" value="左轉" style="whiteSpace=wrap;html=1;" vertex="1" parent="WIyWlLk6GJQsqaUBKTNV-1">
          <mxGeometry x="500" y="595" width="120" height="60" as="geometry" />
        </mxCell>
        <mxCell id="MseVB1M6DWcvVMKwtqfp-13" value="右轉" style="whiteSpace=wrap;html=1;" vertex="1" parent="WIyWlLk6GJQsqaUBKTNV-1">
          <mxGeometry x="500" y="420" width="120" height="60" as="geometry" />
        </mxCell>
        <mxCell id="MseVB1M6DWcvVMKwtqfp-15" value="直走" style="whiteSpace=wrap;html=1;" vertex="1" parent="WIyWlLk6GJQsqaUBKTNV-1">
          <mxGeometry x="660" y="260" width="120" height="60" as="geometry" />
        </mxCell>
      </root>
    </mxGraphModel>
  </diagram>
</mxfile>
